<?xml version="1.0" encoding="utf-8"?>
<!-- Generator: Adobe Illustrator 23.0.6, SVG Export Plug-In . SVG Version: 6.00 Build 0)  -->
<svg version="1.1" id="Layer_1" xmlns="http://www.w3.org/2000/svg" xmlns:xlink="http://www.w3.org/1999/xlink" x="0px" y="0px"
	 viewBox="0 0 256 64" style="enable-background:new 0 0 256 64;" xml:space="preserve">
<style type="text/css">
	.st0{fill:#282828;}
</style>
<polygon class="st0" points="9.2,3.2 60.9,3.2 31.3,47.9 57.7,47.9 57.7,60.3 3.8,60.3 33.6,15.3 9,15.3 "/>
<path class="st0" d="M72.6,9.7c-13,0-23.5,9.3-23.5,20.8c0,11.5,10.5,20.8,23.5,20.8c13,0,23.5-9.3,23.5-20.8
	C96,19,85.5,9.7,72.6,9.7z M72.6,39.7c-5.1,0-9.2-4.1-9.2-9.2s4.1-9.2,9.2-9.2c5.1,0,9.2,4.1,9.2,9.2S77.6,39.7,72.6,39.7z"/>
<path class="st0" d="M242.5,21.3c-1.3-0.4-2.8-0.7-4.2-0.7c-5,0-9.5,2.7-12,6.6c-0.1,0.2-0.2,0.4-0.3,0.5c-2.3-3.2-5.6-5.5-9.5-6.5
	c-1.3-0.3-2.7-0.5-4.1-0.5c-4.8,0-9.1,2-12.1,5.2v-4.7h-14v15.6c-2.2-9.5-11.7-16.5-23-16.5c-13,0-23.5,9.3-23.5,20.8
	c0,0.4,0,0.7,0,1.1c-2.8,3.2-7,5.2-11.6,5.2c-8.6,0-15.5-6.9-15.5-15.5s6.9-15.5,15.5-15.5c5.3,0,10,2.7,12.8,6.7V4.5
	c-3.9-1.7-8.2-2.7-12.8-2.7c-17.1,0-30.9,13.3-30.9,29.8s13.8,29.8,30.9,29.8c4.6,0,8.9-0.9,12.8-2.7v-11
	C144.1,56,152.9,62,163.3,62c11.3,0,20.7-7.1,23-16.5v14.9h14V37.7c0-3.3,2.7-6,6-6c3.3,0,6,2.7,6,6v22.6h14V37.7
	c0-1.9,0.8-3.5,2.1-4.6c1-0.9,2.4-1.4,3.9-1.4c3.3,0,6,2.7,6,6v22.6h14V34.8C252.3,28.5,248.2,23.1,242.5,21.3z M163.3,50.3
	c-5.1,0-9.2-4.1-9.2-9.2c0-5.1,4.1-9.2,9.2-9.2s9.2,4.1,9.2,9.2C172.5,46.2,168.4,50.3,163.3,50.3z"/>
</svg>
